<svg id="undraw_virtual_reality_y5ig" xmlns="http://www.w3.org/2000/svg" xmlns:xlink="http://www.w3.org/1999/xlink" width="249.889" height="136.293" viewBox="0 0 249.889 136.293">
  <defs>
    <linearGradient id="linear-gradient" x1="0.409" y1="0.938" x2="0.409" y2="0.047" gradientUnits="objectBoundingBox">
      <stop offset="0" stop-color="gray" stop-opacity="0.251"/>
      <stop offset="0.54" stop-color="gray" stop-opacity="0.122"/>
      <stop offset="1" stop-color="gray" stop-opacity="0.102"/>
    </linearGradient>
    <linearGradient id="linear-gradient-2" x1="0.493" y1="1.008" x2="0.493" y2="-0.026" xlink:href="#linear-gradient"/>
  </defs>
  <path id="Path_1164" data-name="Path 1164" d="M153.419,435.278c-5.892,2.723-11.324,6.464-17.466,8.56-7.475,2.55-15.546,2.524-23.444,2.466L80.64,446.08A49.236,49.236,0,0,0,111.374,469.6c5.052,1.258,10.448,1.751,14.9,4.453,5.552,3.368,8.844,9.7,14.487,12.907,6.221,3.532,13.953,2.579,20.887,4.33,9.038,2.269,16.6,9.091,25.819,10.434,8.916,1.3,17.608-2.731,26.249-5.273,30.866-9.084,64.212.618,96.072-3.873a5.934,5.934,0,0,0,3.414-1.268c1.138-1.1,1.232-2.887,1.006-4.468-1.136-7.876-8.22-13.665-15.649-16.52-15.827-6.082-33.608-2.261-50.422-4.451-11.548-1.506-22.532-5.841-33.368-10.14-11.346-4.5-22.869-8.918-33.62-14.742C170.221,435.061,166.677,429.158,153.419,435.278Z" transform="translate(-80.64 -368.71)" fill="#3d6cb9" opacity="0.1"/>
  <path id="Path_1165" data-name="Path 1165" d="M796.159,611.8s.481,7.217-.481,8.42c0,0,21.171,3.849,23.817,2.646s1.443-3.127,0-3.849-8.661-3.368-9.623-8.42c0,0,3.128-1.443-6.977.481S796.159,611.8,796.159,611.8Z" transform="translate(-623.613 -503.423)" fill="#dc9ba3"/>
  <path id="Path_1166" data-name="Path 1166" d="M796.159,611.8s.481,7.217-.481,8.42c0,0,21.171,3.849,23.817,2.646s1.443-3.127,0-3.849-8.661-3.368-9.623-8.42c0,0,3.128-1.443-6.977.481S796.159,611.8,796.159,611.8Z" transform="translate(-623.613 -503.423)" opacity="0.05"/>
  <path id="Path_1167" data-name="Path 1167" d="M309.635,199.48l-.091.043a29.68,29.68,0,0,0-11.066,9.014c-1.641,2.165-3.657,4.229-5.574,4.571-4.258.751-35.569,33.315-28.054,63.623S316.21,308.29,316.21,308.29s9.325,1.581,14.675,4.742a9.9,9.9,0,0,0,8.36.8c6.37-2.266,16.84-5.552,21.56-4.542,7.013,1.5,67.121-23.545,67.121-23.545s-25.049-24.058-61.869-23.545c0,0-58.111-40.578-56.107-57.361Z" transform="translate(-219.652 -191.604)" fill="#3d6cb9"/>
  <path id="Path_1168" data-name="Path 1168" d="M309.635,199.48l-.091.043a29.68,29.68,0,0,0-11.066,9.014c-1.641,2.165-3.657,4.229-5.574,4.571-4.258.751-35.569,33.315-28.054,63.623S316.21,308.29,316.21,308.29s9.325,1.581,14.675,4.742a9.9,9.9,0,0,0,8.36.8c6.37-2.266,16.84-5.552,21.56-4.542,7.013,1.5,67.121-23.545,67.121-23.545s-25.049-24.058-61.869-23.545c0,0-58.111-40.578-56.107-57.361Z" transform="translate(-219.652 -191.604)" opacity="0.1"/>
  <path id="Path_1169" data-name="Path 1169" d="M319.965,199.24l-6.014,5.774s-4.571,8.9-8.661,9.623-34.162,32-26.945,61.106,49.318,30.313,49.318,30.313,8.762,1.484,13.917,4.456a10.013,10.013,0,0,0,8.35.816c6.132-2.165,16.066-5.271,20.552-4.309,6.736,1.443,64.474-22.614,64.474-22.614s-24.058-23.1-59.422-22.614c0,0-55.814-38.973-53.889-55.092Z" transform="translate(-229.936 -191.421)" fill="#3d6cb9"/>
  <ellipse id="Ellipse_51" data-name="Ellipse 51" cx="18.972" cy="34.537" rx="18.972" ry="34.537" transform="translate(68.015 64.727) rotate(-45)" opacity="0.1"/>
  <path id="Path_1170" data-name="Path 1170" d="M454.86,326.24s2.646,4.33.962,12.751,4.33,8.42,4.33,8.42h12.029l4.09-10.585-5.774.481s-3.849-.962-2.165-9.864Z" transform="translate(-364.832 -287.868)" fill="#ffd2d9"/>
  <path id="Path_1171" data-name="Path 1171" d="M522.44,259.89c-1.84,5.858-4.148,12.991-5.379,16.8l-.876,2.69-7.939-8.18s.349-.811.871-1.946c1.162-2.516,3.185-6.623,4.181-6.955,0,0-11.066-.722-14.435,1.925S496.458,257,496.458,257s6.5-.481,8.9-1.925,15.4-2.887,15.4-2.887S525.087,251.469,522.44,259.89Z" transform="translate(-396.326 -231.622)" fill="#ffd2d9"/>
  <path id="Path_1172" data-name="Path 1172" d="M423.86,560.7s20.449-9.382,27.666-7.939" transform="translate(-341.289 -459.781)" opacity="0.1"/>
  <path id="Path_1173" data-name="Path 1173" d="M336.86,494.14s24.779-.962,38.252,7.7" transform="translate(-275.22 -415.351)" opacity="0.1"/>
  <path id="Path_1174" data-name="Path 1174" d="M387.86,524.239s19.487-4.812,29.831-3.128" transform="translate(-313.95 -435.587)" opacity="0.1"/>
  <path id="Path_1175" data-name="Path 1175" d="M857.016,575.2l-1.684,12.269-4.33-.481s-.262-.241-.707-.645a28.5,28.5,0,0,0-5.918-4.138,7.252,7.252,0,0,0-2.516-.751l4.812-7.217a26.58,26.58,0,0,0,3.592,1.063,17.337,17.337,0,0,0,3.868.457A7.061,7.061,0,0,0,857.016,575.2Z" transform="translate(-658.729 -476.205)" fill="#ffd2d9"/>
  <path id="Path_1176" data-name="Path 1176" d="M620.563,480.932c-2.165,1.925-12.029-2.165-13.713,4.09l-1.549-5.933-4.771-18.257-.657-2.514-3.974-.171L550.29,456.2,547.7,456.1l-1.362-.058,1.807-.895,12.029-5.961s4.33-.3,10.309-1.124h0c9.06-1.241,21.892-3.669,29.139-8.016,12.029-7.217,16.6,17.081,16.6,17.081s1.828,6.166,3.224,12.24a68.562,68.562,0,0,1,1.443,7.953C621.094,479.166,621.032,480.516,620.563,480.932Z" transform="translate(-434.304 -373.274)" fill="#e9e9ef"/>
  <path id="Path_1177" data-name="Path 1177" d="M622.856,480.917c-2.165,1.925-12.029-2.165-13.713,4.09l-1.549-5.933-4.771-18.257-.657-2.514-4.09-.241L554,455.341l-2.721-.168-.837-.051-1.085-.067,13.111-5.894s4.33-.3,10.309-1.123h0c9.06-1.241,21.892-3.669,29.139-8.016,12.029-7.217,16.6,17.081,16.6,17.081s1.828,6.166,3.224,12.24a68.551,68.551,0,0,1,1.443,7.953C623.388,479.151,623.325,480.5,622.856,480.917Z" transform="translate(-436.597 -373.259)" opacity="0.05"/>
  <path id="Path_1178" data-name="Path 1178" d="M850.241,575.3l-4.21,4.937-1.684,1.968a7.252,7.252,0,0,0-2.516-.751l4.812-7.217A26.588,26.588,0,0,0,850.241,575.3Z" transform="translate(-658.706 -476.205)" opacity="0.1"/>
  <path id="Path_1179" data-name="Path 1179" d="M598.122,501.784l-4.708,5.519-2.269,2.661v.722c-2.776.64-11.43-1.184-13.338-1.6-.241-.051-.375-.082-.375-.082-5.533.241-25.982-11.788-25.982-11.788s-22.374,3.849-33.2,2.887c-6.046-.539-7.739-2.726-8.057-4.554a4.744,4.744,0,0,1,.358-2.663l9.657-6.794,1.282-.9,2.047-1.443s3.558-.806,8.079-1.8h0c7.061-1.557,16.472-3.58,18.378-3.727,3.128-.241,11.067,2.406,15.637,7.7a13.51,13.51,0,0,0,2.646,2.165l.125.082c1.285.852,2.868,1.759,4.631,2.685,5.824,3.067,13.588,6.361,18.926,8.524C595.608,500.831,598.122,501.784,598.122,501.784Z" transform="translate(-406.812 -403.268)" fill="#e9e9ef"/>
  <path id="Path_1180" data-name="Path 1180" d="M883.642,578.24l-1.684,12.269-4.33-.481s-.262-.241-.707-.645a2.578,2.578,0,0,0,2.872-2.242s-1.667-5.834.962-8.343A7.06,7.06,0,0,0,883.642,578.24Z" transform="translate(-685.354 -479.243)" opacity="0.1"/>
  <path id="Path_1181" data-name="Path 1181" d="M879.461,585.622s-2.406-8.42,3.128-9.382l9.142,3.609,10.585.722s2.764,4.513-1.667,9.565a13.61,13.61,0,0,1-9.623,4.571l-11.567.541-3.609-7.458S878.98,588.509,879.461,585.622Z" transform="translate(-684.542 -477.724)" fill="#dc9ba3"/>
  <path id="Path_1182" data-name="Path 1182" d="M543.017,477.57c-1.2.354-6.226,1.852-11.365,3.888h0a63.3,63.3,0,0,0-7.4,3.414c-.5.279-.962.561-1.419.844a12.246,12.246,0,0,0-3.1,2.6,22.648,22.648,0,0,1-9.5,6.753,4.744,4.744,0,0,1,.358-2.663l9.65-6.791-1.362-.058,1.807-.895-1.085-.067L532.7,478.7S537.041,478.4,543.017,477.57Z" transform="translate(-406.834 -402.792)" opacity="0.1"/>
  <path id="Path_1183" data-name="Path 1183" d="M554.675,330.586l-.876,2.69-7.939-8.18s.349-.811.871-1.946C547.734,325.279,552.526,328.991,554.675,330.586Z" transform="translate(-433.939 -285.522)" opacity="0.1"/>
  <path id="Path_1184" data-name="Path 1184" d="M408.538,333.132a13.988,13.988,0,0,1-.621-2.509l-10.345,3.609s-7.1,5.413-6.375,17.2c0,0,8.781-3.248,12.63.6l.079.678a31.275,31.275,0,0,0,8.48,17.894,24.11,24.11,0,0,1,4.672,6.447s6.736-1.925,10.826-7.217,23.576-10.826,23.576-10.826-10.345.241-11.788-3.368-6.255-11.307-4.571-17.321a52.84,52.84,0,0,1,2.646-7.939s-9.864-6.977-9.142-9.142l-6.255,7.217-2.887.962a4.619,4.619,0,0,1,.339,1.759C419.958,337.719,410.73,339.293,408.538,333.132Z" transform="translate(-316.446 -284.071)" fill="#cedad5"/>
  <path id="Path_1185" data-name="Path 1185" d="M206.942,496s2.016,2.646-.931,6.616-5.377,7.34-4.393,9.823c0,0,4.446-7.393,8.064-7.5S210.924,500.453,206.942,496Z" transform="translate(-172.345 -416.788)" fill="#3d6cb9"/>
  <path id="Path_1186" data-name="Path 1186" d="M207.3,496a3.265,3.265,0,0,1,.411.828c3.532,4.148,5.411,8.018,2.018,8.117-3.161.091-6.953,5.743-7.862,7.172a3.062,3.062,0,0,0,.108.325s4.446-7.393,8.064-7.5S211.284,500.453,207.3,496Z" transform="translate(-172.705 -416.788)" opacity="0.1"/>
  <path id="Path_1187" data-name="Path 1187" d="M238.481,508.138c0,.929-.1,1.684-.241,1.684s-.241-.753-.241-1.684.13-.481.257-.481S238.481,507.21,238.481,508.138Z" transform="translate(-200.143 -425.558)" fill="#ffd037"/>
  <path id="Path_1188" data-name="Path 1188" d="M240.352,512.6c-.816.445-1.525.722-1.585.6s.549-.565,1.364-1.008.493-.12.556,0S241.168,512.16,240.352,512.6Z" transform="translate(-200.722 -428.915)" fill="#ffd037"/>
  <path id="Path_1189" data-name="Path 1189" d="M165.9,496s-2.016,2.646.931,6.616,5.377,7.34,4.393,9.823c0,0-4.446-7.393-8.064-7.5S161.92,500.453,165.9,496Z" transform="translate(-141.952 -416.788)" fill="#3d6cb9"/>
  <path id="Path_1190" data-name="Path 1190" d="M165.9,496a3.266,3.266,0,0,0-.411.828c-3.532,4.148-5.411,8.018-2.018,8.117,3.161.091,6.953,5.743,7.862,7.172a3.067,3.067,0,0,1-.108.325s-4.446-7.393-8.064-7.5S161.92,500.453,165.9,496Z" transform="translate(-141.952 -416.788)" opacity="0.1"/>
  <path id="Path_1191" data-name="Path 1191" d="M164.6,508.138c0,.929.1,1.684.241,1.684s.241-.753.241-1.684-.13-.481-.257-.481S164.6,507.21,164.6,508.138Z" transform="translate(-144.401 -425.558)" fill="#ffd037"/>
  <path id="Path_1192" data-name="Path 1192" d="M157.69,512.6c.816.445,1.525.722,1.585.6s-.549-.565-1.364-1.008-.493-.12-.556,0S156.875,512.16,157.69,512.6Z" transform="translate(-138.776 -428.915)" fill="#ffd037"/>
  <path id="Path_1193" data-name="Path 1193" d="M167.27,553.319s5.637-.173,7.335-1.383,8.661-2.646,9.091-.722,8.471,9.649,2.107,9.7-14.786-.991-16.482-2.023S167.27,553.319,167.27,553.319Z" transform="translate(-146.429 -458.005)" fill="#a8a8a8"/>
  <path id="Path_1194" data-name="Path 1194" d="M185.927,569.843c-6.363.051-14.786-.991-16.482-2.023-1.292-.787-1.807-3.609-1.978-4.91h-.188s.356,4.547,2.052,5.579,10.119,2.076,16.482,2.023c1.838-.014,2.471-.669,2.437-1.636C187.994,569.466,187.294,569.831,185.927,569.843Z" transform="translate(-146.436 -467.601)" opacity="0.2"/>
  <path id="Path_1195" data-name="Path 1195" d="M326.306,681.125a2.807,2.807,0,0,0,.921-1.391,1.234,1.234,0,0,0-.645-1.417,1.807,1.807,0,0,0-1.7.6,2.266,2.266,0,0,1-1.658.8,2.521,2.521,0,0,0,.779-2.36.987.987,0,0,0-.217-.481c-.33-.351-.924-.2-1.318.077-1.251.88-1.6,2.579-1.607,4.109a7.877,7.877,0,0,1-.024-1.684,1.739,1.739,0,0,0-.635-1.5,1.924,1.924,0,0,0-.962-.229,2,2,0,0,0-1.573.447,1.547,1.547,0,0,0,.063,1.925,6.261,6.261,0,0,0,1.629,1.3,3.609,3.609,0,0,1,1.164,1.109,1.1,1.1,0,0,1,.087.2h3.52A9.823,9.823,0,0,0,326.306,681.125Z" transform="translate(-260.408 -553.993)" fill="#3d6cb9"/>
  <path id="Path_1196" data-name="Path 1196" d="M391.306,712.935a2.808,2.808,0,0,0,.921-1.391,1.234,1.234,0,0,0-.645-1.417,1.807,1.807,0,0,0-1.7.6,2.266,2.266,0,0,1-1.658.8,2.521,2.521,0,0,0,.779-2.36.987.987,0,0,0-.217-.481c-.33-.351-.924-.2-1.318.077-1.251.88-1.6,2.579-1.607,4.109a7.876,7.876,0,0,1-.024-1.684,1.739,1.739,0,0,0-.635-1.5,1.925,1.925,0,0,0-.962-.229,2,2,0,0,0-1.573.448,1.547,1.547,0,0,0,.063,1.925,6.262,6.262,0,0,0,1.629,1.3,3.608,3.608,0,0,1,1.164,1.109,1.1,1.1,0,0,1,.087.2h3.52A9.821,9.821,0,0,0,391.306,712.935Z" transform="translate(-309.77 -578.15)" fill="#3d6cb9"/>
  <path id="Path_1197" data-name="Path 1197" d="M499.36,561.778s23.336-9.623,42.341-.481l-4.571,9.623-21.892.481Z" transform="translate(-398.626 -463.382)" fill="#3d6cb9"/>
  <path id="Path_1198" data-name="Path 1198" d="M467.967,332.123a24.932,24.932,0,0,1,.366-2.68l-13.472-1.2s.933.806,1.34,3.813c1.581.938,3.426,2.2,5.4,2.2A10.537,10.537,0,0,0,467.967,332.123Z" transform="translate(-364.832 -289.387)" opacity="0.1"/>
  <circle id="Ellipse_52" data-name="Ellipse 52" cx="10.585" cy="10.585" r="10.585" transform="translate(86.299 23.336)" fill="#ffd2d9"/>
  <path id="Path_1199" data-name="Path 1199" d="M435.195,262.888h1.443V258.8l1.443-4.33s7.217-3.368,10.585-2.646l2.646,2.406s.722-5.774-3.609-7.939-12.029-1.2-13.953.481-5.052,4.571-2.646,12.51l.722,1.925S434.713,260.242,435.195,262.888Z" transform="translate(-346.129 -226.2)" fill="#844f6e"/>
  <g id="Group_136" data-name="Group 136" transform="translate(74.7 37.171)" opacity="0.05">
    <path id="Path_1200" data-name="Path 1200" d="M528.58,326.324l.789-.262,3.642-4.193a1.024,1.024,0,0,1-.024-.618Z" transform="translate(-495.517 -321.25)"/>
    <path id="Path_1201" data-name="Path 1201" d="M507.53,356.607a5.437,5.437,0,0,0,3.3-5.293,2.2,2.2,0,0,0-.024-.4l-.077.087-2.887.962a4.619,4.619,0,0,1,.339,1.759A5.749,5.749,0,0,1,507.53,356.607Z" transform="translate(-479.531 -343.775)"/>
    <path id="Path_1202" data-name="Path 1202" d="M570.952,477.42c-6.029,2.1-14.194,5.4-16.677,8.617-.06.079-.123.154-.185.241,6.606-4.53,21.115-8.661,21.115-8.661a37.5,37.5,0,0,1-4.253-.2Z" transform="translate(-514.89 -439.849)"/>
    <path id="Path_1203" data-name="Path 1203" d="M419.706,415.072a24.658,24.658,0,0,0-4.672-6.447,31.275,31.275,0,0,1-8.48-17.894l-.079-.678c-3.849-3.849-12.63-.6-12.63-.6A21.653,21.653,0,0,1,398.1,374.47l-.527.185s-7.1,5.413-6.375,17.2c0,0,8.781-3.248,12.63.6l.079.678a31.275,31.275,0,0,0,8.48,17.894,24.109,24.109,0,0,1,4.672,6.447,24.12,24.12,0,0,0,9.969-6.2,24.9,24.9,0,0,1-7.323,3.792Z" transform="translate(-391.146 -361.667)"/>
  </g>
  <path id="Path_1204" data-name="Path 1204" d="M419.12,394.356s-11.548,16.6-17.562,21.411-7.7-2.165-7.7-2.165V398.2l10.585-1.2.113,1.46.128,1.667,9.864-10.585s9.864-8.9,11.788-3.609S419.12,394.356,419.12,394.356Z" transform="translate(-318.507 -331.926)" fill="#ffd2d9"/>
  <path id="Path_1205" data-name="Path 1205" d="M404.536,438.723a22.922,22.922,0,0,1-4.571,2.028,10.439,10.439,0,0,1-6.135-.481v-1.8l10.585-1.2Z" transform="translate(-318.484 -372.187)" opacity="0.1"/>
  <path id="Path_1206" data-name="Path 1206" d="M391.363,428.146l-.633,2.577s3.76,1.754,6.888.791a27.35,27.35,0,0,0,6.014-2.887c.481-.241-1.925-2.887-1.925-2.887Z" transform="translate(-316.13 -363.431)" fill="#cedad5"/>
  <path id="Path_1207" data-name="Path 1207" d="M681.36,540.273a19.538,19.538,0,0,1,5.293-2.887,18.911,18.911,0,0,0,5.052-2.646" transform="translate(-536.841 -446.208)" opacity="0.1"/>
  <path id="Path_1208" data-name="Path 1208" d="M912.576,594.156l-.395-.026c.573,1.443,1.4,5-1.994,8.877a13.609,13.609,0,0,1-9.623,4.571l-11.2.524.358.739,11.569-.549a13.61,13.61,0,0,0,9.623-4.571C915.34,598.67,912.576,594.156,912.576,594.156Z" transform="translate(-694.801 -491.31)" fill="#fff" opacity="0.2"/>
  <path id="Path_1209" data-name="Path 1209" d="M758.986,645.74h-.036c.031.568.087,1.739.1,3.026C759.056,647.636,759.02,646.524,758.986,645.74Z" transform="translate(-595.765 -530.504)" fill="lime" opacity="0.05"/>
  <path id="Path_1210" data-name="Path 1210" d="M816.06,637.1q.051.219.113.431C816.409,637.4,816.748,637.141,816.06,637.1Z" transform="translate(-639.136 -523.943)" fill="lime" opacity="0.05"/>
  <path id="Path_1211" data-name="Path 1211" d="M819.677,652.046c-2.466,1.121-21.009-2.143-23.531-2.6a1.873,1.873,0,0,1-.286.671s21.171,3.849,23.817,2.646c1.362-.618,1.7-1.429,1.518-2.165A2.446,2.446,0,0,1,819.677,652.046Z" transform="translate(-623.795 -533.322)" fill="#fff" opacity="0.2"/>
  <path id="Path_1212" data-name="Path 1212" d="M757.184,644.6c-.012-.241-.022-.363-.022-.363S755.938,644.678,757.184,644.6Z" transform="translate(-593.999 -529.365)" fill="lime" opacity="0.05"/>
  <rect id="Rectangle_410" data-name="Rectangle 410" width="16.6" height="8.18" rx="4.08" transform="translate(90.63 28.629)" opacity="0.1"/>
  <rect id="Rectangle_411" data-name="Rectangle 411" width="6.977" height="3.127" rx="1.564" transform="translate(84.375 31.275)" opacity="0.1"/>
  <rect id="Rectangle_412" data-name="Rectangle 412" width="16.6" height="8.18" rx="4.08" transform="translate(90.63 28.388)" fill="#7679b4"/>
  <rect id="Rectangle_413" data-name="Rectangle 413" width="14.646" height="7.217" rx="3.609" transform="translate(92.566 28.869)" fill="#565388"/>
  <rect id="Rectangle_414" data-name="Rectangle 414" width="6.977" height="3.127" rx="1.564" transform="translate(84.375 31.034)" fill="#565388"/>
  <path id="Path_1213" data-name="Path 1213" d="M453.552,243.341a16.4,16.4,0,0,0,6.106-6.548,1.476,1.476,0,0,0,.226-1.01c-.171-.654-1.025-.77-1.641-1.051-1.148-.527-1.631-1.857-2.384-2.87a5.74,5.74,0,0,0-5.613-2.165c-1.1.221-2.112.765-3.219.929-2.387.349-4.99-1.1-7.133,0a6.145,6.145,0,0,0-2.221,2.382c-1.46,2.336-3.291,4.812-1.963,7.552a5.909,5.909,0,0,0,3.69,3.322c1.711.457,3.69.077,5.43-.113a21.031,21.031,0,0,1,4.371-.33C450.889,243.62,451.942,244.308,453.552,243.341Z" transform="translate(-349.94 -214.477)" opacity="0.1"/>
  <path id="Path_1214" data-name="Path 1214" d="M453.552,241.341a16.4,16.4,0,0,0,6.106-6.548,1.476,1.476,0,0,0,.226-1.01c-.171-.654-1.025-.77-1.641-1.051-1.148-.527-1.631-1.857-2.384-2.87a5.74,5.74,0,0,0-5.613-2.165c-1.1.221-2.112.765-3.219.929-2.387.349-4.99-1.1-7.133,0a6.145,6.145,0,0,0-2.221,2.382c-1.46,2.336-3.291,4.812-1.963,7.552a5.909,5.909,0,0,0,3.69,3.322c1.711.457,3.69.077,5.43-.113a21.029,21.029,0,0,1,4.371-.33C450.889,241.62,451.942,242.308,453.552,241.341Z" transform="translate(-349.94 -212.958)" fill="#844f6e"/>
  <path id="Path_1215" data-name="Path 1215" d="M708.368,56.114,603.72,74.819V18.7L708.368,0Z" transform="translate(-458.479)" fill="#3d6cb9" opacity="0.2"/>
  <path id="Path_1216" data-name="Path 1216" d="M947.861,16.377l19.354-3.337.281,8.673L947.63,25.035Z" transform="translate(-719.653 -9.903)" fill="#3d6cb9" opacity="0.2"/>
  <g id="Group_137" data-name="Group 137" transform="translate(168.653 15.616)" opacity="0.2">
    <path id="Path_1217" data-name="Path 1217" d="M859.687,382.846a7.218,7.218,0,0,1,2-.166c3.957.07,8.064.457,11.947-.722,2.062-.621,3.912-1.646,6.038-2.086,3.609-.743,7.217.342,10.766-.563a3.426,3.426,0,0,1,2.117-.166c.594.322.173,1.16.9,1.371a3.419,3.419,0,0,1,.674.154c.265.154.1.481-.166.69-1.609,1.306-4.884.438-6.9,1.494-.447.241-.784.544-1.2.794a9.062,9.062,0,0,1-2.091.77l-11.194,3.128a54.6,54.6,0,0,1-8.168,1.836,15.043,15.043,0,0,1-7.677-.746,2.037,2.037,0,0,1-1.006-.787C854.936,386.26,856.9,383.587,859.687,382.846Z" transform="translate(-837.778 -343.567)" fill="#252223" opacity="0.1"/>
    <path id="Path_1218" data-name="Path 1218" d="M713.074,136.06l9.366,7.4,9.366,7.4-15.382,2.909-15.382,2.906,6.017-10.311Z" transform="translate(-701.04 -118.943)" fill="#3d6cb9" opacity="0.3"/>
    <path id="Path_1219" data-name="Path 1219" d="M753.554,128.94l9.366,7.4,9.366,7.4L756.9,146.654l-15.382,2.909,6.017-10.311Z" transform="translate(-731.781 -113.536)" fill="#3d6cb9" opacity="0.3"/>
    <path id="Path_1220" data-name="Path 1220" d="M794.694,64.91,776.62,99.341,810.9,92.67l12.666-2.394Z" transform="translate(-758.437 -64.91)" fill="#3d6cb9"/>
    <path id="Path_1221" data-name="Path 1221" d="M880.619,90.276,867.953,92.67l-16.2-27.76Z" transform="translate(-815.493 -64.91)" opacity="0.1"/>
    <path id="Path_1222" data-name="Path 1222" d="M894.05,288.4a.984.984,0,0,0-1.044-.722s.241-1.891-3.657-1.128a.994.994,0,0,0-1.542-.313l-.166-.878s-2.136,1.225.128,2.971l.272,1.443a.457.457,0,0,0,.034.106.458.458,0,0,1,.029.082c.1.421.864,3.758-.864,4.9-1.85,1.239-2.909-2.579-2.909-2.579-1.2-4.987-3.493-4.968-4.037-4.888-.065,0-.132.014-.2.019-.255.014-1.047.3-1.35,3.173-.363,3.45-1.684,2.589-1.684,2.589a4.966,4.966,0,0,0-5.052-.2c-5.139,3.022-.77,8.69.132,9.765-.339,1.71-1.025,4.725-1.684,4.85-.933.176-2.68,3.452,2.05,8.548l1.258-.241s-3.89-5.081-.828-7.609a3.949,3.949,0,0,1-.241.541c-1.715,2.933,4.121,6.467,4.121,6.467l1.4-.265-3.233-4.073c-1.285-1.684,1.111-3.06,1.111-3.06a4.319,4.319,0,0,0,1.376-5.235l6.621-1.251c-.818,1.809-2.021,6.255,1.978,12.111l.933-.176-.763-7.1a10.333,10.333,0,0,1,1.862-3.832c.645,2.887,2.011,7.869,4.075,9.955l1.352-.255s-1.648-4.727-1.684-6.5c-.017-.722-.048-1.431-.113-2.144l-.337-3.724a3.193,3.193,0,0,0,1.419-3.332l-1.244-6.462a.681.681,0,0,1,.577-.8l1.595-.216a.4.4,0,0,0,.306-.532Z" transform="translate(-848.263 -272.439)" fill="url(#linear-gradient)"/>
    <path id="Path_1223" data-name="Path 1223" d="M945,338.33s1.5,8.916,4.424,11.87l1.328-.241s-1.617-4.641-1.66-6.37c-.017-.7-.046-1.4-.111-2.105l-.544-6.014Z" transform="translate(-905.709 -310.493)" fill="#535461"/>
    <path id="Path_1224" data-name="Path 1224" d="M945,338.33s1.5,8.916,4.424,11.87l1.328-.241s-1.617-4.641-1.66-6.37c-.017-.7-.046-1.4-.111-2.105l-.544-6.014Z" transform="translate(-905.709 -310.493)" opacity="0.05"/>
    <path id="Path_1225" data-name="Path 1225" d="M873.2,352.67s-.962,5.728-1.872,5.9-2.632,3.39,2.014,8.391l1.237-.241s-4.282-5.591-.209-7.879C874.366,358.85,875.076,354.068,873.2,352.67Z" transform="translate(-848.942 -323.556)" fill="#535461"/>
    <path id="Path_1226" data-name="Path 1226" d="M873.2,352.67s-.962,5.728-1.872,5.9-2.632,3.39,2.014,8.391l1.237-.241s-4.282-5.591-.209-7.879C874.366,358.85,875.076,354.068,873.2,352.67Z" transform="translate(-848.942 -323.556)" opacity="0.05"/>
    <path id="Path_1227" data-name="Path 1227" d="M889.2,290.906l-.267-1.41c-2.221-1.713-.125-2.916-.125-2.916l.286,1.511c5.261-1.516,4.98.765,4.98.765a.962.962,0,0,1,1.025.7.392.392,0,0,1-.318.52l-1.566.214a.669.669,0,0,0-.568.789l1.22,6.344a3.183,3.183,0,0,1-.64,2.6,3.6,3.6,0,0,1-2.331,1.239l-12.086,2.285a4.223,4.223,0,0,1-1.352,5.139s-2.353,1.345-1.092,3l3.173,4-1.374.26s-5.728-3.469-4.044-6.349a5.757,5.757,0,0,0-.387-5.808s-5.87-6.476-.281-9.763a4.894,4.894,0,0,1,4.968.2s1.3.844,1.653-2.54c.3-2.822,1.073-3.1,1.323-3.115a.67.67,0,0,0,.195-.019c.534-.077,2.788-.1,3.965,4.8,0,0,1.039,3.739,2.851,2.543,1.7-1.119.962-4.4.849-4.812a.448.448,0,0,0-.029-.079h0A.448.448,0,0,1,889.2,290.906Z" transform="translate(-849.543 -273.365)" fill="#535461"/>
    <path id="Path_1228" data-name="Path 1228" d="M928.273,344.679s-3.719,5.16,1.465,12.751l.917-.173-.748-6.977s.443-2.928,4.458-6.77Z" transform="translate(-892.025 -316.599)" fill="#535461"/>
    <circle id="Ellipse_53" data-name="Ellipse 53" cx="0.979" cy="0.979" r="0.979" transform="translate(38.923 14.049) rotate(-10.7)" fill="#535461"/>
    <path id="Path_1229" data-name="Path 1229" d="M883.069,275.422c1.131-1.72.457-1.833.019-2.285-.3-.308-2.805-.426-4.366-.469-.034-.12-.087-.322-.149-.568,0,0-.125-.452-.183-.77h.1l-.014-.094,1.925-.1c1.643-.067,1.723-.722,1.723-.722.038-1.124-1.816-.046-1.816-.046a4.748,4.748,0,0,1-2.107-.1,4.188,4.188,0,0,1-.036-.481,3.64,3.64,0,0,0-.048-.743,1.2,1.2,0,0,0-.241-.582,9.821,9.821,0,0,0-1.939-1.771,3.338,3.338,0,0,1,.115-1.263,1.533,1.533,0,0,0,.808-1.634,1.481,1.481,0,0,0-.149-.423,1.325,1.325,0,0,0-.293-1.667,1.14,1.14,0,0,0-.164-.123,1.513,1.513,0,0,0-1.051-.241,2.743,2.743,0,0,0-1.14.467,3.1,3.1,0,0,1-1.287.664,5.257,5.257,0,0,0-1.051.026,1.459,1.459,0,0,0-.8,1.03,2.052,2.052,0,0,1-.652,1.15,3.41,3.41,0,0,1-1.143.313A1.684,1.684,0,0,0,867.913,266a1.111,1.111,0,0,0,.438,1.273.89.89,0,0,0,.207.113,1.765,1.765,0,0,1,.241.094.2.2,0,0,1,.079.132.426.426,0,0,1-.041.19,1.018,1.018,0,0,0,.07.811.522.522,0,0,0,.2.216.365.365,0,0,0,.079.051c.281.123.63-.154.909-.029h.022a1.964,1.964,0,0,1,.279.387.8.8,0,0,0,.241.2,1.179,1.179,0,0,0,.83.178,2.928,2.928,0,0,0,1.032-.414c.426-.241.89-.575.924-1.051.019-.291-.132-.573-.1-.861a.792.792,0,0,1,.161-.378,2.941,2.941,0,0,0-.051.741,3.938,3.938,0,0,0,.072.6,4.256,4.256,0,0,0,.549,1.46,6.355,6.355,0,0,1,.792,1.893,2.582,2.582,0,0,1,.014.895,3.716,3.716,0,0,0-.094,1.388c.026.212.1.214.1.214h.017a1.078,1.078,0,0,0,.375.763c2.177.9,6.606-.375,6.606-.375-.895.315-1.535,2.767-1.535,2.767a3.432,3.432,0,0,1-.65,1.467h0c-.481-.072-1.049.467-1.477.782l-.036.024a.354.354,0,0,0-.063.529l1.7,1.867c.982.7,1.547.741,1.706.544.1-.13.034-.361-.207-.585-.582-.541-.5-2.3-.481-2.447A37.1,37.1,0,0,1,883.069,275.422Z" transform="translate(-847.124 -254.181)" fill="url(#linear-gradient-2)"/>
    <path id="Path_1230" data-name="Path 1230" d="M896.124,276.129a3.4,3.4,0,0,0-.168,2.117l-1.845-.979s.587-.159.464-1.557Z" transform="translate(-867.062 -265.11)" fill="#f9d5c6"/>
    <path id="Path_1231" data-name="Path 1231" d="M899.825,308.8s4.9.07,5.312.512,1.054.561,0,2.23-2.218,4.071-2.218,4.071l-1.246-.57a3.3,3.3,0,0,0,.859-1.727s.592-2.389,1.443-2.69c0,0-4.179,1.217-6.255.327a1.2,1.2,0,0,1-.3-1.318C897.682,308.729,899.825,308.8,899.825,308.8Z" transform="translate(-869.527 -290.236)" fill="#353535"/>
    <path id="Path_1232" data-name="Path 1232" d="M892.728,282.3s-1.222-.3-1.133,1.573a4.2,4.2,0,0,0,.582,1.925,4.706,4.706,0,0,1,.8,2.815c-.241,1.467,0,1.47,0,1.47l.625-.38a5.417,5.417,0,0,1,2.8-.794h.291a18.086,18.086,0,0,1-.6-3.041,1.853,1.853,0,0,0-.267-1.2C894.987,283.591,893.313,282.3,892.728,282.3Z" transform="translate(-865.149 -270.104)" opacity="0.1"/>
    <path id="Path_1233" data-name="Path 1233" d="M892.658,281.944s-1.222-.3-1.133,1.573a4.2,4.2,0,0,0,.582,1.925,4.705,4.705,0,0,1,.8,2.815c-.241,1.467,0,1.47,0,1.47l.625-.38a5.418,5.418,0,0,1,2.8-.794h.291a18.086,18.086,0,0,1-.6-3.041,1.853,1.853,0,0,0-.267-1.2C894.917,283.226,893.243,281.944,892.658,281.944Z" transform="translate(-865.096 -269.831)" fill="#409cd6"/>
    <path id="Path_1234" data-name="Path 1234" d="M894.218,286.413a.88.88,0,0,1,1.443-.327,2.2,2.2,0,0,1,.443.683c.58,1.314,1.02,2.131,1.02,2.131a7,7,0,0,1,1.1.255c.055.45.128.917.128.917l-1.561.077-2.139-2.536A1.226,1.226,0,0,1,894.218,286.413Z" transform="translate(-867.11 -272.799)" opacity="0.1"/>
    <path id="Path_1235" data-name="Path 1235" d="M894.141,286.023a.88.88,0,0,1,1.443-.327,2.2,2.2,0,0,1,.443.683c.58,1.314,1.02,2.132,1.02,2.132s2.35.647,2.957.342c0,0,1.747-1.042,1.718.055,0,0-.07.63-1.624.686l-3.383.166-2.139-2.536A1.242,1.242,0,0,1,894.141,286.023Z" transform="translate(-867.052 -272.503)" fill="#f9d5c6"/>
    <path id="Path_1236" data-name="Path 1236" d="M895.45,276.64c.046-.219.149-.135.115-.52l1.549.419a3.564,3.564,0,0,0-.159.481,1.667,1.667,0,0,1-.481.089C896.133,277.176,895.741,276.8,895.45,276.64Z" transform="translate(-868.08 -265.422)" opacity="0.1"/>
    <circle id="Ellipse_54" data-name="Ellipse 54" cx="1.492" cy="1.492" r="1.492" transform="translate(26.451 9.009) rotate(-10.7)" fill="#f9d5c6"/>
    <path id="Path_1237" data-name="Path 1237" d="M877.455,265.295c-.265.014-.553-.07-.777.07a.852.852,0,0,0-.241.82,2.338,2.338,0,0,1,.1.895c-.094.387-.481.625-.818.83s-.722.481-.758.871c-.031.281.113.558.1.842-.029.464-.464.784-.868,1.02a2.688,2.688,0,0,1-.962.4,1.008,1.008,0,0,1-.95-.346c-.108-.149-.173-.349-.342-.426-.265-.125-.594.144-.859.024a.481.481,0,0,1-.212-.224,1.023,1.023,0,0,1-.07-.789.424.424,0,0,0,.036-.185c-.022-.152-.207-.2-.351-.257a1.085,1.085,0,0,1-.563-1.316,1.576,1.576,0,0,1,1.143-.986,3.2,3.2,0,0,0,1.078-.3,1.959,1.959,0,0,0,.609-1.119,1.383,1.383,0,0,1,.748-1,4.713,4.713,0,0,1,.994-.019,2.761,2.761,0,0,0,1.2-.64,2.517,2.517,0,0,1,1.075-.45,1.364,1.364,0,0,1,1.1.313C878.53,263.926,878.571,265.235,877.455,265.295Z" transform="translate(-848.651 -255.453)" opacity="0.1"/>
    <path id="Path_1238" data-name="Path 1238" d="M877.232,265.16c-.265.014-.553-.07-.777.07a.851.851,0,0,0-.241.82,2.338,2.338,0,0,1,.1.895c-.094.387-.481.625-.818.83s-.722.481-.758.871c-.031.281.113.558.1.842-.029.464-.464.784-.868,1.02a2.687,2.687,0,0,1-.962.4,1.008,1.008,0,0,1-.948-.342c-.108-.149-.173-.349-.342-.426-.265-.125-.594.144-.859.024a.481.481,0,0,1-.212-.224,1.022,1.022,0,0,1-.07-.789.424.424,0,0,0,.036-.185c-.022-.152-.207-.2-.351-.257a1.085,1.085,0,0,1-.563-1.316,1.576,1.576,0,0,1,1.143-.986,3.2,3.2,0,0,0,1.078-.3,1.959,1.959,0,0,0,.609-1.119,1.383,1.383,0,0,1,.748-1,4.712,4.712,0,0,1,.994-.019,2.761,2.761,0,0,0,1.2-.64,2.516,2.516,0,0,1,1.075-.45,1.364,1.364,0,0,1,1.1.313C878.308,263.791,878.348,265.1,877.232,265.16Z" transform="translate(-848.483 -255.354)" fill="#2f302f"/>
    <path id="Path_1239" data-name="Path 1239" d="M895.33,285.348s-1.925.125-1.761,1.47-.669-1.532-.669-1.532l.748-.806,1.068.13Z" transform="translate(-866.143 -271.77)" opacity="0.1"/>
    <path id="Path_1240" data-name="Path 1240" d="M895.12,285.188s-1.925.125-1.761,1.47-.669-1.532-.669-1.532l.748-.806,1.068.13Z" transform="translate(-865.984 -271.649)" fill="#409cd6"/>
    <path id="Path_1241" data-name="Path 1241" d="M909.871,334.72l1.621,1.831c.933.683,1.468.722,1.617.541.1-.125.029-.351-.2-.57-.58-.553-.481-2.406-.481-2.406a1.131,1.131,0,0,1-1.08-.7c-.459-.072-.989.45-1.393.753l-.034.024a.351.351,0,0,0-.05.524Z" transform="translate(-878.959 -308.93)" fill="#409cd6"/>
    <path id="Path_1242" data-name="Path 1242" d="M917.4,334.158s-.924.128-1.08-.7A1.16,1.16,0,0,0,917.4,334.158Z" transform="translate(-883.929 -308.967)" opacity="0.1"/>
    <path id="Path_1243" data-name="Path 1243" d="M909.89,337.141l1.621,1.831c.933.683,1.468.722,1.617.541-.467-.144-1.787-.722-3.149-2.913l-.034.024a.351.351,0,0,0-.055.517Z" transform="translate(-878.978 -311.352)" opacity="0.1"/>
    <path id="Path_1244" data-name="Path 1244" d="M796.872,396.009s-4.289,3.835,5.485,6.638c0,0,1.275-4.022-1.46-6.587a2.983,2.983,0,0,0-3.96-.115Z" transform="translate(-792.505 -355.89)" fill="#3d6cb9"/>
    <path id="Path_1245" data-name="Path 1245" d="M800,398.11s4.747,2.379,5.444,6.71" transform="translate(-795.593 -358.064)" fill="none" stroke="#535461" stroke-miterlimit="10" stroke-width="1"/>
    <path id="Path_1246" data-name="Path 1246" d="M812.389,374.1s-2.49-4.864-1.4-9a8.278,8.278,0,0,0-.308-5.24,13.922,13.922,0,0,0-1.176-2.259" transform="translate(-802.807 -327.307)" fill="none" stroke="#535461" stroke-miterlimit="10" stroke-width="2"/>
    <path id="Path_1247" data-name="Path 1247" d="M805,343.831a9.19,9.19,0,0,1-.678,2.678,9.191,9.191,0,0,1-1.607-2.245,1.163,1.163,0,1,1,2.285-.433Z" transform="translate(-797.639 -316.124)" fill="#3d6cb9"/>
    <path id="Path_1248" data-name="Path 1248" d="M815.824,354.79c-.241.594-2.023,1.879-2.023,1.879a9.217,9.217,0,0,1-.13-2.759,1.169,1.169,0,0,1,2.165.881Z" transform="translate(-805.912 -323.943)" fill="#3d6cb9"/>
    <path id="Path_1249" data-name="Path 1249" d="M818.717,378.188a9.265,9.265,0,0,1-2.7.6,9.26,9.26,0,0,1,1.28-2.447,1.163,1.163,0,0,1,1.415,1.845Z" transform="translate(-807.759 -341.351)" fill="#3d6cb9"/>
    <path id="Path_1250" data-name="Path 1250" d="M818.215,398.185a8.894,8.894,0,0,1-2.555,1.047,9.083,9.083,0,0,1,.849-2.627,1.163,1.163,0,1,1,1.706,1.581Z" transform="translate(-807.485 -356.637)" fill="#3d6cb9"/>
    <path id="Path_1251" data-name="Path 1251" d="M802.956,363.333a9.237,9.237,0,0,0,2.73.411,9.327,9.327,0,0,0-1.443-2.353,1.163,1.163,0,1,0-1.282,1.941Z" transform="translate(-797.445 -330.033)" fill="#3d6cb9"/>
    <path id="Path_1252" data-name="Path 1252" d="M801.113,385.794a9.187,9.187,0,0,0,2.728-.426,9.2,9.2,0,0,0-2.086-1.812,1.163,1.163,0,1,0-.642,2.235Z" transform="translate(-795.798 -346.977)" fill="#3d6cb9"/>
    <path id="Path_1253" data-name="Path 1253" d="M803.924,408.4a9.237,9.237,0,0,0,2.762.043,9.23,9.23,0,0,0-1.749-2.136,1.164,1.164,0,1,0-1.013,2.1Z" transform="translate(-798.073 -364.197)" fill="#3d6cb9"/>
    <path id="Path_1254" data-name="Path 1254" d="M805,343.831a9.19,9.19,0,0,1-.678,2.678,9.191,9.191,0,0,1-1.607-2.245,1.163,1.163,0,1,1,2.285-.433Z" transform="translate(-797.639 -316.124)" opacity="0.25"/>
    <path id="Path_1255" data-name="Path 1255" d="M815.824,354.79c-.241.594-2.023,1.879-2.023,1.879a9.217,9.217,0,0,1-.13-2.759,1.169,1.169,0,0,1,2.165.881Z" transform="translate(-805.912 -323.943)" opacity="0.25"/>
    <path id="Path_1256" data-name="Path 1256" d="M818.717,378.188a9.265,9.265,0,0,1-2.7.6,9.26,9.26,0,0,1,1.28-2.447,1.163,1.163,0,0,1,1.415,1.845Z" transform="translate(-807.759 -341.351)" opacity="0.25"/>
    <path id="Path_1257" data-name="Path 1257" d="M818.215,398.185a8.894,8.894,0,0,1-2.555,1.047,9.083,9.083,0,0,1,.849-2.627,1.163,1.163,0,1,1,1.706,1.581Z" transform="translate(-807.485 -356.637)" opacity="0.25"/>
    <path id="Path_1258" data-name="Path 1258" d="M802.956,363.333a9.237,9.237,0,0,0,2.73.411,9.327,9.327,0,0,0-1.443-2.353,1.163,1.163,0,1,0-1.282,1.941Z" transform="translate(-797.445 -330.033)" opacity="0.25"/>
    <path id="Path_1259" data-name="Path 1259" d="M801.113,385.794a9.187,9.187,0,0,0,2.728-.426,9.2,9.2,0,0,0-2.086-1.812,1.163,1.163,0,1,0-.642,2.235Z" transform="translate(-795.798 -346.977)" opacity="0.25"/>
    <path id="Path_1260" data-name="Path 1260" d="M803.924,408.4a9.237,9.237,0,0,0,2.762.043,9.23,9.23,0,0,0-1.749-2.136,1.164,1.164,0,1,0-1.013,2.1Z" transform="translate(-798.073 -364.197)" opacity="0.25"/>
    <path id="Path_1261" data-name="Path 1261" d="M831.887,377.972s-2.49-4.864-1.4-9a8.278,8.278,0,0,0-.306-5.228A13.915,13.915,0,0,0,829,361.49" transform="translate(-817.616 -330.254)" fill="none" stroke="#535461" stroke-miterlimit="10" stroke-width="2"/>
    <path id="Path_1262" data-name="Path 1262" d="M824.531,347.651a9.192,9.192,0,0,1-.678,2.678,9.191,9.191,0,0,1-1.607-2.245,1.163,1.163,0,0,1,2.286-.433Z" transform="translate(-812.471 -319.025)" fill="#3d6cb9"/>
    <path id="Path_1263" data-name="Path 1263" d="M835.354,358.61c-.241.594-2.023,1.879-2.023,1.879a9.219,9.219,0,0,1-.13-2.759,1.169,1.169,0,0,1,2.165.881Z" transform="translate(-820.743 -326.844)" fill="#3d6cb9"/>
    <path id="Path_1264" data-name="Path 1264" d="M838.247,382.008a9.265,9.265,0,0,1-2.7.6,9.262,9.262,0,0,1,1.28-2.447,1.163,1.163,0,1,1,1.415,1.845Z" transform="translate(-822.59 -344.252)" fill="#3d6cb9"/>
    <path id="Path_1265" data-name="Path 1265" d="M837.745,402a8.894,8.894,0,0,1-2.555,1.047,9.085,9.085,0,0,1,.849-2.627A1.163,1.163,0,1,1,837.745,402Z" transform="translate(-822.317 -359.538)" fill="#3d6cb9"/>
    <path id="Path_1266" data-name="Path 1266" d="M822.486,367.153a9.238,9.238,0,0,0,2.731.411,9.328,9.328,0,0,0-1.443-2.353,1.163,1.163,0,0,0-1.282,1.941Z" transform="translate(-812.276 -332.934)" fill="#3d6cb9"/>
    <path id="Path_1267" data-name="Path 1267" d="M820.643,389.6a9.187,9.187,0,0,0,2.728-.426,9.205,9.205,0,0,0-2.086-1.812,1.163,1.163,0,0,0-.642,2.235Z" transform="translate(-810.63 -349.87)" fill="#3d6cb9"/>
    <path id="Path_1268" data-name="Path 1268" d="M823.484,412.216a9.237,9.237,0,0,0,2.762.043,9.23,9.23,0,0,0-1.749-2.136,1.164,1.164,0,0,0-1.013,2.1Z" transform="translate(-812.928 -367.098)" fill="#3d6cb9"/>
    <path id="Path_1269" data-name="Path 1269" d="M869.032,243.565l-.423.079a.3.3,0,0,0-.113-.592l-3.428.647a.3.3,0,0,0,.113.592l.423-.079a.3.3,0,1,0,.113.592l-.592.113a.3.3,0,0,0,.113.592l3.428-.647a.3.3,0,1,0-.113-.592l.592-.113a.3.3,0,0,0-.113-.592Z" transform="translate(-844.82 -240.306)" fill="#252223" opacity="0.1"/>
    <path id="Path_1270" data-name="Path 1270" d="M843.2,268.035l-.423.079a.3.3,0,0,0-.113-.592l-3.435.647a.3.3,0,0,0,.113.592l.423-.079a.3.3,0,1,0,.113.592l-.592.113a.3.3,0,0,0,.113.592l3.438-.647a.3.3,0,0,0-.113-.592l.592-.113a.3.3,0,1,0-.113-.592Z" transform="translate(-825.197 -258.889)" fill="#252223" opacity="0.1"/>
    <path id="Path_1271" data-name="Path 1271" d="M989,236.775l-.423.079a.3.3,0,1,0-.113-.592l-3.426.654a.3.3,0,0,0,.113.592l.423-.079a.3.3,0,0,0,.113.592l-.6.1a.3.3,0,0,0,.113.592l3.428-.647a.3.3,0,1,0-.113-.592l.592-.113a.3.3,0,0,0-.113-.592Z" transform="translate(-935.929 -235.149)" fill="#252223" opacity="0.1"/>
    <circle id="Ellipse_55" data-name="Ellipse 55" cx="3.192" cy="3.192" r="3.192" transform="translate(3.55 6.573) rotate(-10.7)" fill="#3d6cb9" opacity="0.3"/>
    <path id="Path_1272" data-name="Path 1272" d="M891.12,338.19a14.34,14.34,0,0,1,2.353,2.675c.748,1.258.51,1.684.51,1.684" transform="translate(-864.791 -312.559)" opacity="0.05"/>
  </g>
  <rect id="Rectangle_416" data-name="Rectangle 416" width="6.977" height="3.127" rx="1.564" transform="translate(84.375 31.034)" fill="#565388"/>
</svg>
